<?xml version="1.0" standalone="no"?><!DOCTYPE svg PUBLIC "-//W3C//DTD SVG 1.1//EN" "http://www.w3.org/Graphics/SVG/1.1/DTD/svg11.dtd"><svg class="icon" width="200px" height="200.00px" viewBox="0 0 1024 1024" version="1.1" xmlns="http://www.w3.org/2000/svg"><path d="M905.746 715.605q-22.272 71.424-70.29 142.848-73.728 112.018-146.871 112.018-28.014 0-80.018-18.286-49.152-18.286-86.272-18.286-34.853 0-81.152 18.871-46.299 19.419-75.447 19.419-86.857 0-171.995-148.005-84.005-149.138-84.005-287.415 0-130.304 64.585-213.723 64-82.286 162.304-82.286 41.143 0 101.157 17.152 59.429 17.152 78.848 17.152 25.71 0 81.701-19.419 58.295-19.419 98.853-19.419 67.986 0 121.71 37.157 29.696 20.553 59.429 57.161-45.129 38.29-65.134 67.438-37.157 53.723-37.157 118.272 0 70.839 39.424 127.415t90.295 72.009zM690.889 45.324q0 34.853-16.567 77.714-17.152 42.862-53.138 78.848-30.866 30.866-61.696 41.143-21.138 6.29-59.429 9.728 1.719-85.138 44.581-146.871 42.277-61.147 142.848-84.553 0.585 1.719 1.426 6.29t1.426 6.29q0 2.304 0.293 5.705t0.293 5.705z" /></svg>