<?xml version="1.0" standalone="no"?><!DOCTYPE svg PUBLIC "-//W3C//DTD SVG 1.1//EN" "http://www.w3.org/Graphics/SVG/1.1/DTD/svg11.dtd"><svg class="icon" width="200px" height="200.00px" viewBox="0 0 1024 1024" version="1.1" xmlns="http://www.w3.org/2000/svg"><path d="M21.333333 10.666667h981.333334a21.333333 21.333333 0 0 1 21.333333 21.333333v16.32a21.333333 21.333333 0 0 1-21.333333 21.333333H21.333333a21.333333 21.333333 0 0 1-21.333333-21.333333V32a21.333333 21.333333 0 0 1 21.333333-21.333333z m0 471.850666h981.333334a21.333333 21.333333 0 0 1 21.333333 21.333334v16.32a21.333333 21.333333 0 0 1-21.333333 21.333333H21.333333a21.333333 21.333333 0 0 1-21.333333-21.333333v-16.32a21.333333 21.333333 0 0 1 21.333333-21.333334z m0 471.829334h981.333334a21.333333 21.333333 0 0 1 21.333333 21.333333v16.32a21.333333 21.333333 0 0 1-21.333333 21.333333H21.333333a21.333333 21.333333 0 0 1-21.333333-21.333333v-16.32a21.333333 21.333333 0 0 1 21.333333-21.333333z"  /></svg>