<?xml version="1.0" standalone="no"?><!DOCTYPE svg PUBLIC "-//W3C//DTD SVG 1.1//EN" "http://www.w3.org/Graphics/SVG/1.1/DTD/svg11.dtd"><svg class="icon" width="200px" height="200.00px" viewBox="0 0 1024 1024" version="1.1" xmlns="http://www.w3.org/2000/svg"><path d="M912.338944 882.834091 718.921728 689.41824c121.22112-137.160021 116.256768-346.763264-14.939477-477.960875-136.384512-136.381781-357.504341-136.381781-493.887488 0-136.383147 136.384512-136.383147 357.507072 0 493.887488 131.198976 131.197611 340.799488 136.161963 477.960875 14.938112l193.417216 193.422677c4.261205 4.258475 11.172523 4.258475 15.433728 0l15.433728-15.439189C916.601515 894.006613 916.601515 887.096661 912.338944 882.834091zM240.962219 674.480128c-119.334229-119.33696-119.334229-312.816981 0-432.155307 119.334229-119.332864 312.814251-119.332864 432.151211 0 119.334229 119.33696 119.334229 312.816981 0 432.155307C553.777835 793.812992 360.297813 793.812992 240.962219 674.480128z" /></svg>