<?xml version="1.0" standalone="no"?><!DOCTYPE svg PUBLIC "-//W3C//DTD SVG 1.1//EN" "http://www.w3.org/Graphics/SVG/1.1/DTD/svg11.dtd"><svg t="1489657602181" class="icon" style="" viewBox="0 0 1024 1024" version="1.1" xmlns="http://www.w3.org/2000/svg" p-id="3558" xmlns:xlink="http://www.w3.org/1999/xlink" width="64" height="64"><defs><style type="text/css"></style></defs><path d="M700.509091 563.898182c-2.56 7.214545-5.12 13.963636-7.68 20.48-6.749091 15.36-14.661818 29.556364-23.738182 42.821818-12.567273 17.92-22.807273 30.254545-30.72 37.003636-12.101818 11.170909-25.367273 16.989091-39.330909 17.221819-10.007273 0-22.109091-2.792727-36.305455-8.61091-14.196364-5.818182-27.229091-8.610909-39.098181-8.610909-12.567273 0-25.832727 2.792727-40.261819 8.610909-14.429091 5.818182-25.832727 8.843636-34.676363 9.076364-13.498182 0.465455-26.763636-5.352727-40.261818-17.687273-8.610909-7.447273-19.316364-20.247273-32.116364-38.4-13.730909-19.316364-25.134545-41.658182-33.978182-67.258181-9.541818-27.694545-14.196364-54.458182-14.196363-80.29091 0-29.556364 6.516364-55.156364 19.316363-76.567272 10.007273-17.221818 23.505455-30.72 40.261818-40.727273 16.756364-10.007273 34.909091-15.127273 54.458182-15.36 10.705455 0 24.669091 3.258182 42.123637 9.774545 17.454545 6.516364 28.625455 9.774545 33.512727 9.774546 3.723636 0 16.058182-3.956364 37.003636-11.636364 19.781818-7.214545 36.538182-10.007273 50.269091-8.843636 37.236364 3.025455 65.163636 17.687273 83.781818 43.985454-33.28 20.247273-49.803636 48.407273-49.338182 84.712728 0.232727 28.16 10.472727 51.665455 30.72 70.283636 8.843636 8.843636 18.850909 15.36 30.254546 20.247273z m-93.556364-323.956364c0.232727 3.025455 0.465455 5.818182 0.465455 8.843637 0 22.109091-8.145455 42.821818-24.203637 61.905454-19.549091 22.807273-43.054545 35.84-68.421818 33.745455-0.232727-2.56-0.465455-5.352727-0.465454-8.378182 0-21.178182 9.309091-43.985455 25.6-62.603637 8.145455-9.309091 18.618182-17.221818 31.185454-23.505454 12.8-6.050909 24.669091-9.541818 35.84-10.007273z" p-id="3559" fill="#515151"></path></svg>